<svg width="32" height="32" viewBox="0 0 32 32" fill="none" xmlns="http://www.w3.org/2000/svg">
<rect width="32" height="32" rx="2" fill="white"/>
<path d="M15.4429 30C13.502 30 11.6562 29.6194 9.90551 28.8583C8.15486 28.0971 6.61352 27.0505 5.2815 25.7185C3.94948 24.3865 2.90289 22.8451 2.14173 21.0945C1.38058 19.3438 1 17.498 1 15.5571C1 13.5781 1.38058 11.6942 2.14173 9.90551C2.90289 8.1168 3.94948 6.55643 5.2815 5.22441C6.61352 3.89239 8.15486 2.86483 9.90551 2.14173C11.6562 1.38058 13.502 1 15.4429 1C17.4219 1 19.3058 1.38058 21.0945 2.14173C22.8832 2.86483 24.4436 3.89239 25.7756 5.22441C27.1076 6.55643 28.1352 8.1168 28.8583 9.90551C29.6194 11.6942 30 13.5781 30 15.5571C30 17.498 29.6194 19.3438 28.8583 21.0945C28.1352 22.8451 27.1076 24.3865 25.7756 25.7185C24.4436 27.0505 22.8832 28.0971 21.0945 28.8583C19.3058 29.6194 17.4219 30 15.4429 30ZM15.4429 6.08071C12.893 6.08071 10.7047 6.99409 8.87795 8.82086C8.00263 9.69619 7.31759 10.7238 6.82284 11.9035C6.32809 13.0833 6.08071 14.3012 6.08071 15.5571C6.08071 16.813 6.32809 18.0118 6.82284 19.1535C7.31759 20.2953 8.00263 21.3038 8.87795 22.1791C9.75328 23.0545 10.7428 23.7395 11.8465 24.2342C12.9882 24.729 14.187 24.9764 15.4429 24.9764C16.6988 24.9764 17.9167 24.729 19.0965 24.2342C20.2762 23.7395 21.2848 23.0545 22.122 22.1791C22.9593 21.3038 23.6253 20.2953 24.1201 19.1535C24.6148 18.0118 24.8622 16.813 24.8622 15.5571C24.8622 14.3012 24.6148 13.0833 24.1201 11.9035C23.6253 10.7238 22.9593 9.69619 22.122 8.82086C21.2848 7.94554 20.2762 7.27953 19.0965 6.82283C17.9547 6.32808 16.7369 6.08071 15.4429 6.08071Z" fill="#0065FC"/>
<path d="M18.4566 11.875C18.4566 13.4872 17.1497 14.7942 15.5374 14.7942C13.9252 14.7942 12.6182 13.4872 12.6182 11.875C12.6182 10.2628 13.9252 8.9558 15.5374 8.9558C17.1497 8.9558 18.4566 10.2628 18.4566 11.875Z" fill="#0065FC"/>
<path d="M12.6182 21.2813L14.0275 10.9019H17.2487L18.4566 21.2813H12.6182Z" fill="#0065FC"/>
</svg>
